<?xml version="1.0" encoding="UTF-8"?>
<svg id="Capa_1" xmlns="http://www.w3.org/2000/svg" version="1.1" viewBox="0 0 1150.5 891.4">
  <defs>
    <style>
      .st0 {
        fill: #00188a;
      }
    </style>
  </defs>
  <path class="st0" d="M1103.4,348.6c-9.3,1.5-20,3.5-29.3,4.9v-23.7c0-139.9-113.3-253.3-253.3-253.3h-173.2c1-10,1.9-19.9,3-29.7,3.3-25.5-26.2-44.3-68.1-46.5-2.3-.1-4.8-.3-7.2-.3s-4.9,0-7.2.3c-41.9,2.2-71.2,21-68.1,46.5,1.1,10,2,19.8,3,29.7h-173.2c-139.9,0-253.3,113.3-253.3,253.3v23.7c-9.3-1.4-20-3.4-29.3-4.9-27.3-4.9-47.2,27.4-47.2,73.2s0,6.1.3,9c2.2,41.9,21,71.2,46.5,68.1,10-1.1,19.9-2,29.7-3v65.7c0,139.9,113.3,253.3,253.3,253.3h173.2c-1,10-1.9,19.8-3,29.7-3.3,25.5,26.2,44.3,68.1,46.5,2.5.1,4.8.3,7.2.3s4.9,0,7.2-.3c41.9-2.2,71.2-21,68.1-46.5-1.1-10-2-19.8-3-29.7h173.2c139.9,0,253.3-113.3,253.3-253.3v-65.7c10,1,19.8,1.9,29.7,3,25.5,3.3,44.3-26.2,46.5-68.1.1-3,.3-6,.3-9,0-45.8-19.9-78.1-47.2-73.2M957.8,499.4c0,122.5-99.3,221.8-221.8,221.8h-322.1c-122.5,0-221.8-99.3-221.8-221.8v-107.5c0-122.5,99.3-221.8,221.8-221.8h322.1c122.5,0,221.8,99.3,221.8,221.8v107.5Z"/>
  <path class="st0" d="M430.2,343.6c-60.8-26.6-120.8-7.9-136.7,54.7-16,63,2.7,137.1,55.6,155.6,53.7,19,122.9-12.3,145.5-67,23.2-55.4-4.6-116.9-64.5-143.5"/>
  <path class="st0" d="M720.1,343.6c60.8-26.6,120.8-7.9,136.7,54.7,16,63-2.7,137.1-55.6,155.6-53.7,19-122.9-12.3-145.5-67-23.2-55.4,4.6-116.9,64.5-143.5"/>
</svg>